# xmcd
#
# Track frame offsets: 
#        150
#        22015
#        33389
#        49531
#        63771
#        83155
#        92804
#        139687
#        161136
#        169437
#        183781
#        206223
#        216617
#        224341
#        232634
#        248885
#        260869
#        279100
#
# Disc length: 3810 seconds
#
# Revision: 0
# Processed by: cddbd v1.5.1PL0 Copyright (c) Steve Scherf et al.
# Submitted via: ExactAudioCopy v0.95a4
#
DISCID=070ee012
DTITLE=разные - Kantele
DYEAR=2004
DGENRE=Folklore
TTITLE0="Тойве", Карелия
TTITLE1="Зарни Эль", Коми
TTITLE2="Kajana-kanteleet", Финляндия
TTITLE3="Крезчи", Удмуртия
TTITLE4=Ande Sombri, Норвегия
TTITLE5="Рикала", Латвия
TTITLE6=Карелия-Финляндия
TTITLE7="росынька" - "Букнакаран, Карелия-Норвегия
TTITLE8="Куллерво", Карелия
TTITLE9="Истоки", Карелия
TTITLE10="Радуга", Карелия
TTITLE11="Крезчи", Удмуртия
TTITLE12="Зарни Ань", Коми
TTITLE13="Шыжарвла", Марий Эл
TTITLE14="Букнакаран,Норвегия
TTITLE15=Voito isosaan, Финляндия
TTITLE16="Мурома", Владимирская обл.
TTITLE17="Карельская горница", Карелия
EXTD=
EXTT0=
EXTT1=
EXTT2=
EXTT3=
EXTT4=
EXTT5=
EXTT6=
EXTT7=
EXTT8=
EXTT9=
EXTT10=
EXTT11=
EXTT12=
EXTT13=
EXTT14=
EXTT15=
EXTT16=
EXTT17=
PLAYORDER=
